<?xml version="1.0" standalone="no"?>
<!DOCTYPE svg PUBLIC "-//W3C//DTD SVG 20010904//EN"
 "http://www.w3.org/TR/2001/REC-SVG-20010904/DTD/svg10.dtd">
<svg version="1.0" xmlns="http://www.w3.org/2000/svg"
 width="1080.000000pt" height="1080.000000pt" viewBox="0 0 1080.000000 1080.000000"
 preserveAspectRatio="xMidYMid meet">

<g transform="translate(0.000000,1080.000000) scale(0.100000,-0.100000)"
fill="#000000" stroke="none">
<path d="M5180 10481 c-635 -101 -1165 -545 -1360 -1140 -70 -212 -85 -315
-84 -561 0 -236 12 -319 75 -519 40 -128 154 -355 233 -465 84 -116 206 -249
301 -325 l76 -61 -612 0 -611 0 64 69 c462 489 459 1255 -6 1739 -245 256
-561 392 -907 392 -200 0 -354 -32 -530 -109 -251 -110 -488 -337 -612 -586
-91 -185 -132 -358 -131 -570 0 -165 10 -230 55 -380 60 -193 176 -386 312
-516 l49 -47 -43 -7 c-262 -39 -493 -130 -692 -272 -103 -74 -265 -236 -340
-341 -82 -114 -160 -268 -206 -407 -76 -231 -72 -113 -69 -2050 4 -1930 -2
-1754 74 -1985 75 -225 183 -399 359 -576 216 -219 476 -359 781 -421 85 -17
213 -18 2599 -18 l2510 0 120 28 c533 126 953 511 1106 1012 17 55 34 107 37
116 6 14 235 -69 1442 -522 789 -296 1438 -538 1443 -539 4 0 7 1326 7 2946 0
2802 -1 2946 -17 2939 -338 -132 -2869 -1073 -2873 -1068 -4 5 -18 50 -33 100
-118 404 -408 743 -790 923 -130 61 -205 86 -340 114 -59 12 -106 27 -105 32
2 5 28 28 58 53 248 198 443 483 545 796 67 204 80 294 80 545 -1 184 -4 230
-23 320 -149 691 -662 1205 -1348 1350 -146 31 -438 36 -594 11z m544 -476
c480 -109 856 -496 953 -982 24 -122 24 -358 -1 -473 -85 -397 -318 -706 -663
-879 -195 -97 -344 -132 -558 -132 -357 0 -642 117 -891 365 -244 243 -366
536 -366 881 0 355 129 656 388 905 304 292 725 408 1138 315z m-3239 -869
c127 -23 219 -62 331 -142 230 -163 366 -479 326 -757 -28 -190 -96 -324 -241
-467 -81 -80 -111 -103 -191 -143 -134 -67 -228 -89 -370 -89 -142 0 -236 22
-370 89 -81 40 -110 62 -196 148 -90 89 -106 111 -151 205 -78 160 -107 320
-84 470 70 460 493 767 946 686z m3902 -2197 c386 -43 719 -307 853 -676 63
-174 60 -94 60 -1912 0 -1576 -1 -1660 -19 -1746 -86 -415 -427 -742 -846
-810 -138 -23 -4850 -22 -4979 0 -433 76 -773 420 -846 855 -7 45 -10 577 -8
1760 l3 1695 27 85 c37 119 71 192 134 289 161 245 451 427 734 460 115 13
4769 13 4887 0z m3783 -2579 c0 -1254 -3 -2280 -7 -2280 -5 1 -546 202 -1203
449 l-1195 447 0 1385 0 1384 1190 447 c655 246 1196 447 1203 447 9 1 12
-461 12 -2279z"/>
<path d="M5430 6604 c-284 -15 -620 -66 -835 -127 -22 -6 -44 -12 -50 -12 -5
-1 -20 -6 -32 -13 -12 -7 -26 -11 -30 -10 -31 8 -132 -89 -117 -114 4 -6 3 -8
-3 -5 -6 4 -14 0 -17 -9 -3 -8 -2 -12 4 -9 6 3 7 -1 4 -9 -3 -9 -11 -13 -17
-9 -6 3 -7 1 -3 -5 6 -10 -1 -48 -20 -111 -5 -17 -4 -22 5 -17 6 4 2 -15 -9
-44 -27 -68 -25 -76 10 -47 16 14 39 29 51 32 12 4 55 29 98 56 135 87 472
204 816 284 157 36 162 37 330 33 160 -4 175 -6 265 -36 52 -18 117 -46 143
-62 27 -17 50 -30 53 -30 2 0 23 -13 46 -30 22 -16 48 -30 58 -30 9 0 21 -5
28 -12 22 -22 12 5 -10 30 l-23 25 25 -13 c14 -7 42 -24 63 -37 22 -14 41 -22
43 -20 9 9 -131 129 -212 183 -208 138 -384 183 -664 168z"/>
<path d="M1933 6580 c-114 -24 -331 -152 -449 -265 l-69 -66 59 30 c50 26 56
27 40 9 -11 -11 -14 -19 -9 -16 6 2 24 10 41 17 17 6 51 23 75 37 227 127 314
154 489 154 129 0 258 -22 500 -86 289 -76 585 -192 688 -271 53 -40 144 -84
137 -65 -3 9 -17 56 -32 106 -14 50 -36 114 -50 141 -13 28 -21 41 -18 30 4
-11 9 -38 11 -60 l5 -40 -15 30 c-8 17 -29 63 -47 103 -29 65 -36 73 -68 81
-20 5 -88 23 -151 40 -267 70 -446 91 -805 96 -159 2 -309 0 -332 -5z"/>
<path d="M2170 5896 c-133 -30 -244 -83 -342 -162 -69 -56 -161 -158 -181
-201 -9 -20 -18 -23 -61 -23 -71 -1 -129 -29 -163 -81 -58 -88 -26 -214 65
-255 l40 -17 1 -152 c1 -177 19 -263 80 -390 96 -200 247 -334 457 -404 125
-42 240 -55 419 -48 526 21 1005 239 1178 535 83 144 112 264 105 446 -4 95
-11 138 -31 201 -15 44 -27 83 -27 86 0 4 33 23 73 43 110 54 174 49 288 -25
l47 -30 -19 -50 c-33 -86 -52 -224 -44 -319 37 -440 370 -729 985 -854 213
-43 502 -46 655 -7 271 70 474 260 567 532 30 88 32 105 36 267 3 136 7 172
18 172 20 0 83 58 101 93 22 44 20 118 -6 164 -33 58 -81 86 -157 91 -61 4
-64 5 -90 46 -110 167 -285 288 -485 336 -77 18 -118 20 -496 20 -444 0 -502
-5 -621 -54 -34 -13 -90 -42 -124 -62 -71 -43 -198 -160 -229 -210 l-21 -34
-34 21 c-173 106 -300 113 -459 24 l-61 -34 -45 56 c-90 114 -237 212 -394
264 -69 23 -80 23 -520 25 -332 2 -464 -1 -505 -10z m2618 -989 c106 -106 192
-200 192 -209 0 -23 -27 -41 -52 -34 -13 3 -108 93 -211 201 -166 173 -186
197 -177 215 24 44 50 25 248 -173z m261 -7 c172 -178 191 -201 181 -220 -24
-44 -50 -26 -248 173 -106 106 -192 200 -192 208 0 8 5 20 12 27 31 31 55 12
247 -188z m-2841 -93 c159 -159 193 -198 190 -218 -2 -17 -10 -25 -28 -27 -21
-2 -59 31 -219 192 -175 175 -193 196 -187 220 14 55 42 35 244 -167z m260 0
c159 -159 193 -198 190 -218 -2 -16 -11 -25 -27 -27 -20 -3 -59 31 -218 190
-182 182 -210 218 -186 241 23 24 59 -4 241 -186z"/>
<path d="M6215 3949 c-115 -37 -421 -118 -615 -163 -1085 -252 -2157 -292
-3215 -120 -159 26 -463 103 -707 178 -81 25 -152 46 -158 46 -22 0 -5 -243
31 -429 78 -402 333 -842 594 -1021 25 -17 97 -58 158 -89 429 -219 1054 -326
1716 -293 618 31 1050 107 1409 248 256 101 384 191 484 341 53 80 230 437
282 570 80 206 126 410 126 562 0 82 -22 192 -38 190 -4 0 -34 -9 -67 -20z
m-32 -226 c-13 -94 -45 -219 -66 -266 l-24 -52 -8 100 c-16 178 -14 203 18
231 16 13 41 24 57 24 28 0 29 -2 23 -37z m-4465 -63 c13 -24 11 -104 -5 -180
-14 -71 -39 -8 -49 121 l-7 91 24 -4 c13 -1 29 -14 37 -28z m4245 -141 c6
-151 -2 -234 -26 -269 -26 -37 -113 -101 -165 -120 -66 -25 -84 -25 -113 -1
-22 18 -24 26 -21 98 1 57 -5 107 -25 190 -30 126 -27 163 17 174 51 14 305
76 316 78 7 1 13 -50 17 -150z m-4011 86 c168 -38 156 -18 150 -242 -6 -246
-13 -260 -121 -241 -60 11 -104 41 -140 95 -48 72 -54 108 -46 280 7 145 8
152 26 142 10 -5 69 -21 131 -34z m295 -86 c15 -6 83 -17 149 -24 123 -14 176
-31 193 -63 5 -10 6 -93 2 -207 -8 -204 -17 -241 -73 -291 -36 -33 -140 -84
-171 -84 -85 0 -147 174 -150 420 -2 112 9 260 18 260 2 0 16 -5 32 -11z
m3238 -126 c10 -71 20 -202 22 -293 l5 -165 -39 -55 c-42 -60 -94 -100 -129
-100 -32 0 -67 34 -109 105 -49 82 -70 158 -90 316 -9 74 -20 152 -25 174 -6
25 -5 44 1 52 17 20 89 42 190 58 53 8 107 19 120 24 13 5 27 10 30 10 3 1 14
-56 24 -126z m-2575 12 c261 -26 260 -26 271 -161 11 -138 9 -299 -4 -364 -10
-43 -17 -57 -38 -67 -56 -27 -158 -47 -239 -47 -103 -1 -166 25 -201 81 -21
34 -22 40 -14 226 5 106 9 231 9 278 l1 86 30 -8 c17 -5 100 -16 185 -24z
m2073 -117 c38 -189 50 -309 44 -413 -6 -83 -8 -92 -34 -112 -93 -75 -304 -74
-333 1 -7 18 -17 159 -37 519 -5 78 -3 97 8 98 8 0 73 8 144 18 204 28 178 43
208 -111z m-1297 52 c138 -15 130 -3 137 -203 3 -95 13 -230 23 -301 l17 -130
-27 -23 c-52 -44 -122 -56 -293 -48 -171 8 -198 17 -237 85 -23 39 -23 40 -11
415 l7 220 152 -3 c83 -1 187 -7 232 -12z m798 -27 c4 -27 11 -145 16 -263 5
-118 12 -249 15 -290 6 -64 4 -80 -14 -107 -32 -51 -68 -56 -238 -28 -256 42
-318 97 -284 254 8 40 8 76 -4 164 -20 149 -19 246 1 275 14 21 23 22 142 23
70 1 161 5 202 9 41 4 94 7 116 8 l41 2 7 -47z m-2541 -273 c31 -12 61 -29 66
-38 5 -9 6 -66 2 -127 l-6 -110 -56 100 c-59 104 -119 220 -119 230 0 3 12 -3
28 -14 15 -11 53 -30 85 -41z m3965 -27 c-4 -59 -11 -91 -32 -132 -27 -53
-120 -161 -138 -161 -14 0 -35 60 -42 123 -3 32 -13 74 -21 93 -8 19 -12 41
-9 48 6 15 65 43 151 71 29 9 55 21 58 26 4 5 13 9 22 9 13 0 15 -12 11 -77z
m-3682 -214 c21 -21 50 -44 66 -52 27 -13 29 -18 33 -93 8 -135 -9 -162 -72
-111 -15 13 -43 29 -61 36 -18 8 -44 27 -57 43 -21 24 -25 40 -25 91 0 34 4
78 9 97 6 19 15 55 21 80 l12 45 19 -49 c10 -27 35 -67 55 -87z m422 -51 c28
-26 60 -43 100 -54 57 -16 60 -18 66 -53 3 -20 6 -96 6 -170 l0 -134 -42 7
c-180 28 -268 73 -298 151 -17 45 -24 213 -11 262 13 48 51 97 96 124 l30 19
6 -57 c6 -50 12 -62 47 -95z m2951 -60 c1 -83 -23 -118 -96 -138 -27 -7 -57
-19 -68 -27 -46 -31 -85 -4 -85 60 0 49 30 103 62 116 89 34 117 47 143 67 27
19 31 20 37 5 4 -9 7 -46 7 -83z m-374 -11 c29 -59 33 -128 10 -183 -12 -29
-27 -41 -89 -70 -119 -54 -148 -45 -146 48 0 29 -2 73 -6 98 -6 43 -4 47 20
58 15 7 33 12 41 12 53 0 92 54 80 111 l-7 32 35 -27 c20 -15 47 -51 62 -79z
m-2030 19 c3 -17 35 -59 73 -98 l67 -69 1 -139 c2 -170 -3 -181 -68 -162 -54
17 -119 30 -180 37 -26 4 -58 15 -72 26 l-26 20 0 195 0 194 53 1 c28 0 72 8
97 18 25 9 46 15 47 12 1 -4 4 -19 8 -35z m1588 -92 c77 -8 101 -30 95 -87 -3
-23 0 -57 5 -76 12 -45 -6 -86 -48 -105 -19 -9 -78 -23 -132 -31 -54 -8 -115
-17 -135 -21 -35 -6 -38 -4 -49 22 -13 35 -6 157 12 197 8 18 24 30 49 37 37
10 62 31 73 62 4 13 14 16 39 13 18 -3 59 -7 91 -11z m-692 -48 c75 -35 163
-56 229 -56 34 0 36 -2 32 -28 -2 -16 3 -53 12 -82 21 -69 21 -116 0 -124 -9
-3 -32 -6 -52 -6 -20 0 -77 -7 -127 -15 -49 -8 -107 -15 -127 -15 l-38 0 0 83
c0 45 -3 126 -7 180 -3 53 -4 97 -1 97 3 0 38 -15 79 -34z m-226 -33 c12 -12
15 -26 11 -52 -3 -20 -8 -82 -12 -138 -6 -92 -9 -102 -28 -107 -28 -8 -129 -7
-248 1 l-98 6 0 46 c0 25 -5 77 -10 115 -8 50 -7 79 1 104 l11 35 87 -6 c47
-3 109 -2 136 2 87 14 132 12 150 -6z"/>
</g>
</svg>
