<?xml version="1.0" standalone="no"?>
<!DOCTYPE svg PUBLIC "-//W3C//DTD SVG 20010904//EN"
 "http://www.w3.org/TR/2001/REC-SVG-20010904/DTD/svg10.dtd">
<svg version="1.0" xmlns="http://www.w3.org/2000/svg"
 width="1080.000000pt" height="1080.000000pt" viewBox="0 0 1080.000000 1080.000000"
 preserveAspectRatio="xMidYMid meet">

<g transform="translate(0.000000,1080.000000) scale(0.100000,-0.100000)"
fill="#000000" stroke="none">
<path d="M4195 9806 c-16 -8 -331 -316 -700 -685 l-670 -671 -416 0 c-228 0
-465 -5 -525 -11 -830 -81 -1483 -724 -1573 -1551 -15 -133 -15 -4179 -1
-4333 81 -854 761 -1515 1620 -1576 169 -11 6779 -11 6941 1 857 63 1531 716
1618 1569 15 144 15 4143 0 4301 -39 422 -212 794 -503 1086 -290 290 -659
463 -1070 503 -60 6 -326 11 -590 11 l-481 0 -670 671 c-386 386 -684 677
-702 685 -47 21 -2233 20 -2278 0z m2820 -967 c369 -368 684 -678 700 -687 27
-15 94 -18 645 -23 533 -5 625 -8 690 -23 590 -136 1010 -578 1118 -1176 16
-88 17 -258 17 -2230 0 -2018 -1 -2140 -18 -2230 -74 -390 -298 -730 -622
-945 -146 -96 -295 -160 -485 -208 l-85 -21 -3530 -4 c-3085 -2 -3542 -1
-3625 12 -290 46 -567 185 -775 391 -220 217 -352 467 -412 778 -17 86 -18
223 -18 2247 0 2398 -5 2203 67 2427 144 444 522 808 969 933 164 45 227 50
724 50 259 0 495 3 525 6 l55 6 685 684 685 684 1010 0 1010 0 670 -671z"/>
<path d="M8100 7750 c-91 -4 -226 -15 -300 -24 -74 -9 -175 -21 -225 -26 -220
-26 -566 -88 -695 -126 -25 -7 -89 -20 -144 -30 -54 -9 -93 -20 -86 -24 16
-10 -34 -18 -90 -14 -30 2 -38 0 -25 -5 11 -5 25 -6 30 -3 6 3 5 -1 -1 -7 -6
-7 -31 -15 -54 -18 -47 -7 -116 -41 -144 -72 -10 -11 -60 -156 -113 -322 -52
-167 -97 -308 -101 -313 -3 -6 16 6 43 26 28 20 80 50 117 68 l67 32 87 -47
c48 -25 115 -65 150 -88 l63 -41 -77 -22 c-260 -75 -477 -222 -631 -427 l-44
-57 -41 23 c-194 112 -248 131 -371 131 -112 0 -196 -25 -319 -94 l-88 -50
-22 28 c-147 188 -267 286 -463 379 -112 53 -258 92 -375 100 -49 3 -88 9 -88
13 0 7 130 85 207 124 40 20 53 23 62 13 5 -7 32 -28 58 -46 39 -26 42 -28 18
-6 -32 29 -24 26 38 -12 49 -31 58 -59 -105 325 -71 169 -130 312 -130 318 -1
13 -445 129 -638 168 -301 60 -647 95 -1030 104 -372 9 -603 1 -701 -26 -232
-64 -566 -266 -783 -473 -56 -54 -99 -99 -96 -102 3 -3 34 12 70 33 35 22 66
37 69 35 2 -3 15 5 28 17 13 12 23 17 23 11 0 -11 -42 -53 -54 -53 -4 0 -4 5
0 12 4 7 3 8 -5 4 -18 -12 -1 -27 22 -20 12 3 47 19 79 34 31 16 65 31 76 34
11 4 77 40 146 80 312 182 520 236 856 221 231 -10 652 -101 1095 -235 293
-89 615 -210 615 -230 0 -5 -29 -27 -65 -49 -77 -49 -217 -154 -300 -226 l-60
-52 -320 -6 c-333 -6 -398 -14 -540 -62 -104 -36 -238 -108 -334 -180 -110
-83 -179 -154 -257 -266 l-54 -76 -85 -6 c-99 -7 -168 -38 -216 -96 -109 -132
-55 -339 104 -406 l37 -15 0 -194 c0 -283 31 -432 133 -630 147 -287 388 -490
692 -581 50 -15 107 -33 127 -41 119 -44 494 -39 798 11 663 109 1139 355
1383 714 202 299 248 695 120 1049 -14 40 -24 74 -22 76 2 3 32 20 66 39 150
85 244 98 352 47 60 -29 181 -99 181 -106 0 -2 -13 -43 -30 -91 -48 -146 -63
-256 -57 -423 7 -153 12 -186 53 -315 54 -169 144 -314 279 -450 305 -306 794
-494 1490 -574 202 -23 498 6 685 66 351 113 636 394 753 743 50 150 60 230
61 452 l1 207 40 18 c172 78 210 309 70 432 -54 47 -98 63 -192 69 l-81 5 -48
71 c-68 99 -212 241 -319 312 -116 77 -257 138 -392 171 -105 25 -119 25 -548
30 l-440 5 -80 67 c-111 93 -150 123 -266 201 l-100 68 108 42 c372 144 877
291 1268 369 132 27 171 30 330 31 315 0 454 -22 650 -103 55 -23 104 -41 109
-39 5 2 18 -6 30 -16 11 -11 40 -29 63 -41 23 -11 44 -25 48 -30 3 -6 12 -8
20 -4 8 3 15 0 15 -6 0 -5 26 -28 58 -49 79 -53 87 -57 78 -43 -9 13 55 -14
99 -43 l30 -20 -20 25 c-10 13 -37 44 -60 68 l-40 43 35 -17 c19 -10 51 -28
70 -40 19 -12 62 -37 95 -55 l59 -34 -39 48 c-113 134 -416 351 -640 457 -135
64 -263 100 -435 124 -69 10 -368 13 -530 5z m-1288 -2488 c205 -205 288 -294
288 -310 0 -28 -34 -62 -62 -62 -16 0 -105 83 -310 288 -205 205 -288 294
-288 310 0 12 9 31 20 42 11 11 30 20 42 20 16 0 105 -83 310 -288z m380 0
c205 -205 288 -294 288 -310 0 -28 -34 -62 -62 -62 -16 0 -105 83 -310 288
-205 205 -288 294 -288 310 0 12 9 31 20 42 11 11 30 20 42 20 16 0 105 -83
310 -288z m-4189 -150 c158 -158 287 -295 287 -304 0 -51 -43 -77 -88 -54 -15
8 -150 138 -299 288 -284 285 -294 298 -256 340 39 44 53 34 356 -270z m380 0
c158 -158 287 -295 287 -304 0 -48 -43 -77 -83 -56 -34 18 -577 571 -577 588
0 29 30 60 58 60 23 0 79 -52 315 -288z"/>
<path d="M9540 7146 c0 -3 9 -10 20 -16 11 -6 20 -8 20 -6 0 3 -9 10 -20 16
-11 6 -20 8 -20 6z"/>
<path d="M8655 4138 c-322 -95 -814 -216 -1035 -253 -113 -20 -213 -40 -222
-45 -29 -17 -500 -92 -806 -130 -472 -58 -895 -82 -1407 -82 -599 0 -997 29
-1635 117 -96 13 -206 27 -245 30 -38 4 -106 17 -150 30 -44 12 -136 37 -205
55 -179 45 -417 113 -622 176 -97 30 -182 54 -189 54 -9 0 -11 -39 -6 -167 15
-386 99 -737 252 -1048 183 -371 379 -637 591 -797 147 -112 431 -248 719
-343 652 -216 1430 -283 2385 -204 488 39 843 97 1195 194 315 87 639 220 800
328 85 58 210 188 276 287 72 108 320 611 393 797 115 291 186 611 186 830 0
72 -42 227 -61 229 -8 1 -104 -25 -214 -58z m79 -270 c-25 -174 -90 -414 -119
-438 -13 -11 -15 -6 -15 31 0 24 -8 106 -17 182 -16 134 -16 139 3 185 22 53
65 82 122 82 l32 0 -6 -42z m-6330 -74 c9 -8 19 -27 22 -41 9 -35 -2 -209 -17
-258 -10 -37 -12 -38 -25 -20 -8 10 -19 35 -24 55 -13 43 -25 242 -17 264 8
20 41 21 61 0z m6010 -38 c-3 -14 -1 -105 5 -203 12 -189 5 -297 -24 -353 -20
-39 -135 -130 -212 -169 -74 -37 -132 -48 -171 -32 -50 21 -57 44 -57 186 0
115 -4 145 -34 258 -48 185 -33 228 87 242 56 7 361 81 371 90 2 3 13 5 23 5
14 0 17 -5 12 -24z m-5684 -66 c215 -48 262 -74 245 -139 -4 -14 -10 -129 -14
-256 -8 -294 -9 -295 -114 -295 -126 1 -222 62 -280 179 -47 94 -63 192 -48
291 6 41 11 121 11 178 l0 103 28 -15 c15 -8 92 -28 172 -46z m439 -125 c22
-7 109 -21 193 -31 202 -21 259 -41 291 -99 16 -29 10 -431 -8 -519 -24 -114
-74 -180 -174 -231 -25 -12 -62 -31 -81 -41 -49 -26 -108 -24 -147 4 -85 61
-153 323 -153 592 0 125 22 340 35 340 1 0 21 -7 44 -15z m4587 -265 c21 -154
27 -249 28 -380 l0 -175 -28 -45 c-47 -73 -124 -148 -171 -166 -41 -15 -46
-15 -82 2 -65 32 -168 204 -202 339 -11 44 -29 159 -41 255 -11 96 -27 201
-34 232 -12 54 -12 58 8 77 30 28 115 56 216 70 103 14 229 40 250 52 19 10
21 -1 56 -261z m-3876 131 c30 -6 132 -17 225 -26 192 -17 296 -37 341 -64 29
-18 32 -24 37 -92 4 -41 9 -168 12 -284 5 -179 3 -223 -12 -295 l-18 -85 -58
-23 c-86 -34 -222 -62 -304 -62 -164 0 -276 52 -314 145 -21 53 -20 266 2 488
16 155 18 222 11 263 -8 48 -7 54 7 50 9 -3 41 -9 71 -15z m3143 -130 c63
-303 70 -357 71 -565 l1 -198 -39 -34 c-58 -50 -135 -76 -241 -82 -114 -5
-168 9 -216 56 l-36 37 -7 175 c-4 96 -13 254 -21 350 -8 96 -15 209 -15 252
l0 76 38 6 c20 3 87 10 147 17 61 6 144 17 185 24 41 7 82 13 91 14 12 1 21
-27 42 -128z m-2018 19 c208 -6 270 -11 310 -25 28 -10 55 -22 61 -26 7 -6 13
-85 17 -216 6 -210 13 -290 43 -506 l16 -118 -28 -30 c-70 -73 -170 -91 -449
-80 -208 8 -231 14 -287 75 -16 17 -35 53 -43 80 -19 64 -19 206 0 321 11 69
13 135 8 280 -3 105 -3 208 1 229 l7 38 42 -7 c23 -4 159 -11 302 -15z m1324
-42 c6 -35 16 -184 21 -333 6 -148 15 -314 20 -368 14 -140 13 -175 -10 -223
-38 -77 -125 -92 -310 -54 -52 11 -112 20 -132 20 -20 0 -73 11 -116 25 -136
43 -213 134 -198 237 18 130 17 218 -4 387 -23 182 -22 258 4 308 l15 30 233
8 c128 4 267 11 308 15 41 4 94 7 116 8 l42 2 11 -62z m-3622 -379 c34 -11 77
-30 95 -43 l33 -22 0 -157 c0 -97 -4 -158 -10 -158 -13 -2 -75 105 -176 305
l-80 159 37 -32 c21 -17 66 -40 101 -52z m5638 16 c13 -101 -15 -206 -84 -311
-44 -68 -136 -164 -156 -164 -27 0 -45 46 -61 151 -19 130 -23 148 -42 181
-26 46 4 67 169 123 54 18 111 42 126 54 16 11 31 21 35 21 4 0 10 -25 13 -55z
m-5266 -294 c30 -58 100 -125 156 -147 l45 -19 0 -137 c0 -178 -12 -194 -100
-129 -19 14 -57 36 -85 49 -57 27 -91 55 -111 94 -20 38 -17 146 5 236 11 43
25 104 32 137 l12 60 12 -50 c6 -27 22 -70 34 -94z m593 -4 c3 -63 8 -80 32
-111 41 -54 106 -92 192 -112 l74 -18 1 -60 c1 -34 4 -141 8 -239 5 -154 4
-177 -9 -177 -8 0 -71 12 -140 26 -199 40 -285 88 -327 181 -22 48 -26 73 -31
202 -6 168 5 219 60 285 28 35 111 96 129 96 4 0 8 -33 11 -73z m4232 -222 c1
-85 -2 -104 -19 -127 -25 -34 -79 -64 -130 -74 -22 -4 -56 -18 -75 -30 -53
-36 -91 -31 -115 17 -35 67 4 192 69 223 19 9 40 16 46 16 25 0 155 69 180 95
l24 26 10 -23 c5 -13 10 -68 10 -123z m-549 20 c44 -61 59 -120 53 -209 -7
-110 -23 -130 -142 -184 -175 -79 -209 -69 -207 60 1 40 -4 94 -10 119 -21 82
-3 106 91 125 86 16 116 57 108 144 l-5 50 40 -30 c22 -16 55 -50 72 -75z
m-2855 22 c0 -45 49 -124 111 -177 96 -84 94 -76 96 -295 0 -104 -3 -198 -8
-207 -13 -25 -75 -23 -140 2 -28 11 -96 25 -152 31 -108 11 -161 29 -178 61
-7 13 -11 122 -12 288 l-2 268 90 4 c67 3 100 10 130 26 52 27 65 27 65 -1z
m2210 -157 c142 0 174 -26 176 -139 1 -42 5 -97 9 -123 14 -89 -40 -128 -207
-154 -57 -8 -137 -22 -178 -31 -110 -22 -112 -22 -129 12 -33 66 -8 277 36
317 10 9 36 21 59 27 46 12 79 43 89 82 6 25 9 26 43 18 20 -5 66 -9 102 -9z
m-965 -61 c106 -55 196 -80 313 -86 72 -4 100 -9 93 -16 -17 -17 -13 -62 16
-172 26 -98 26 -103 10 -129 -16 -23 -24 -26 -75 -26 -31 0 -95 -7 -142 -15
-91 -15 -281 -37 -285 -33 -8 9 -16 520 -9 517 5 -2 41 -20 79 -40z m-288 -56
c16 -20 16 -102 2 -163 -6 -25 -11 -93 -12 -152 l0 -108 -202 0 c-111 0 -230
3 -264 6 l-61 7 0 60 c0 34 -5 109 -12 168 -20 180 0 207 139 187 66 -10 102
-9 204 4 140 18 188 16 206 -9z"/>
</g>
</svg>
