<?xml version="1.0" standalone="no"?>
<!DOCTYPE svg PUBLIC "-//W3C//DTD SVG 20010904//EN"
 "http://www.w3.org/TR/2001/REC-SVG-20010904/DTD/svg10.dtd">
<svg version="1.0" xmlns="http://www.w3.org/2000/svg"
 width="1080.000000pt" height="1080.000000pt" viewBox="0 0 1080.000000 1080.000000"
 preserveAspectRatio="xMidYMid meet">

<g transform="translate(0.000000,1080.000000) scale(0.100000,-0.100000)"
fill="#000000" stroke="none">
<path d="M4980 9265 c-790 -81 -1557 -393 -2175 -885 -357 -285 -665 -622
-908 -996 -112 -173 -172 -280 -271 -486 -200 -415 -322 -832 -383 -1318 -22
-180 -22 -668 1 -887 72 -681 293 -1306 662 -1868 322 -492 785 -947 1267
-1247 529 -330 1085 -530 1692 -609 226 -30 684 -37 918 -15 536 52 1019 193
1501 439 411 210 728 440 1057 767 220 220 390 428 552 676 364 561 580 1164
659 1844 19 167 16 662 -6 858 -96 874 -434 1656 -996 2306 -104 120 -331 346
-450 447 -611 522 -1389 863 -2200 965 -184 23 -731 28 -920 9z m630 -245
c550 -32 1019 -155 1515 -400 759 -374 1376 -983 1762 -1740 403 -789 527
-1750 337 -2610 -220 -992 -811 -1854 -1656 -2418 -924 -617 -2058 -810 -3148
-537 -318 80 -682 227 -957 386 -670 389 -1193 932 -1544 1604 -218 419 -356
873 -415 1370 -23 189 -26 704 -6 865 116 918 491 1699 1122 2331 740 741
1676 1135 2750 1157 36 1 144 -3 240 -8z"/>
<path d="M4640 8243 c-16 -3 -176 -156 -465 -443 l-440 -439 -340 -4 c-331 -3
-343 -4 -440 -30 -115 -31 -292 -115 -380 -182 -230 -173 -388 -424 -440 -698
-22 -118 -23 -2841 0 -2969 73 -420 381 -764 790 -883 49 -14 118 -30 154 -35
43 -7 854 -10 2361 -8 l2295 3 96 26 c218 61 376 153 529 308 144 148 237 312
293 523 l22 83 0 1460 0 1460 -26 96 c-39 140 -82 236 -159 351 -148 225 -384
394 -648 466 -95 25 -106 26 -484 31 l-388 6 -440 440 -440 440 -713 1 c-391
1 -723 -1 -737 -3z m1807 -635 l443 -443 413 -6 c407 -6 413 -6 502 -32 331
-97 565 -342 653 -685 16 -62 17 -173 17 -1497 l0 -1430 -23 -79 c-95 -327
-333 -565 -662 -659 l-75 -22 -2275 -3 c-2501 -3 -2363 -6 -2528 58 -271 105
-469 320 -559 605 l-28 90 -3 1405 c-2 1019 0 1425 8 1478 40 253 194 486 414
627 79 50 151 83 255 113 84 25 95 26 441 29 203 2 366 8 380 14 14 5 221 205
460 444 l435 435 645 0 645 0 442 -442z"/>
<path d="M7105 6910 c-208 -12 -520 -54 -690 -95 -55 -13 -126 -29 -157 -35
-32 -6 -60 -16 -63 -21 -4 -5 -17 -6 -29 -3 -16 4 -25 0 -29 -10 -4 -9 -17
-16 -29 -16 -28 0 -84 -33 -96 -57 -10 -19 -122 -376 -122 -388 0 -3 12 3 27
15 14 11 47 30 71 40 l45 20 56 -31 c31 -18 74 -43 96 -57 l39 -25 -54 -14
c-136 -34 -301 -142 -386 -253 l-46 -58 -66 38 c-90 51 -135 63 -225 59 -65
-4 -87 -10 -153 -45 l-78 -40 -95 96 c-78 79 -112 105 -186 142 -95 49 -181
75 -279 86 l-59 7 83 47 c73 41 86 46 100 34 8 -8 32 -21 54 -30 35 -15 38
-15 32 1 -17 42 -169 408 -172 412 -7 8 -384 100 -474 115 -244 41 -361 49
-690 50 -369 1 -357 3 -533 -87 -105 -53 -215 -128 -310 -210 -85 -74 -91 -94
-15 -51 45 25 57 30 44 15 -30 -33 -4 -25 101 30 328 173 359 183 578 182 163
-1 265 -18 541 -88 167 -43 539 -166 584 -194 l32 -19 -69 -46 c-38 -25 -101
-72 -140 -105 l-71 -59 -228 -4 c-226 -4 -230 -4 -316 -34 -157 -56 -311 -171
-388 -291 -33 -52 -34 -53 -84 -53 -100 0 -176 -70 -176 -162 0 -67 25 -116
76 -147 l41 -26 6 -150 c4 -109 11 -171 27 -225 65 -230 232 -421 443 -507 95
-39 213 -55 407 -56 159 0 188 2 325 31 347 72 575 179 733 346 37 40 84 99
104 132 116 189 133 463 44 675 -5 12 10 24 65 52 100 52 149 51 247 -4 56
-31 73 -45 68 -57 -44 -136 -49 -161 -50 -282 -1 -102 3 -139 22 -203 64 -224
215 -392 461 -516 99 -51 288 -110 453 -142 138 -27 167 -29 347 -28 285 1
391 30 546 146 139 105 242 259 285 427 15 61 20 111 20 221 l0 143 29 12 c16
6 40 24 54 38 104 109 21 282 -134 282 -47 0 -48 1 -92 63 -83 117 -201 209
-337 264 -114 46 -175 53 -468 53 l-273 0 -77 63 c-42 35 -108 85 -146 110
l-70 46 35 15 c187 77 502 173 763 232 155 35 167 37 335 35 96 -1 195 -6 220
-11 119 -23 283 -95 386 -170 22 -15 42 -27 44 -25 2 3 17 -3 33 -11 36 -19
45 -14 18 11 -27 25 -25 41 3 23 12 -8 45 -27 72 -42 l50 -28 -75 74 c-80 78
-221 178 -330 233 -187 94 -331 114 -685 95z m-801 -1599 c190 -191 204 -210
164 -235 -15 -9 -45 16 -208 179 -104 104 -190 197 -190 207 0 15 24 37 40 38
3 0 90 -85 194 -189z m243 7 c101 -100 186 -191 189 -201 7 -21 -12 -47 -34
-47 -25 0 -382 360 -382 385 0 22 17 45 34 45 5 0 92 -82 193 -182z m-2699
-90 c95 -95 178 -181 183 -191 6 -10 7 -27 4 -37 -14 -45 -48 -22 -232 162
-173 173 -200 208 -176 231 22 23 58 -4 221 -165z m256 -17 c171 -172 187
-191 177 -210 -24 -45 -50 -27 -238 163 -101 101 -183 190 -183 198 0 19 20
38 40 38 9 0 100 -85 204 -189z"/>
<path d="M7520 4593 c-200 -59 -530 -141 -655 -162 -66 -12 -156 -30 -200 -41
-174 -42 -619 -99 -935 -120 -211 -14 -720 -14 -926 0 -179 12 -473 43 -609
65 -49 7 -115 16 -145 20 -60 7 -422 102 -620 163 -124 38 -125 39 -133 18
-12 -29 9 -256 33 -378 53 -258 197 -561 353 -742 111 -129 176 -179 337 -260
268 -136 606 -222 1010 -257 173 -15 691 -6 895 16 430 45 728 114 1004 232
262 111 332 184 495 516 177 360 238 555 240 772 1 97 -3 138 -14 161 l-15 31
-115 -34z m24 -195 c-12 -82 -44 -209 -62 -245 l-19 -36 -8 94 c-14 151 -11
179 19 206 15 13 38 23 52 23 23 0 24 -2 18 -42z m-4064 -47 c13 -26 13 -87
-1 -152 l-11 -53 -15 29 c-9 16 -18 66 -21 112 -5 79 -4 83 16 83 12 0 26 -9
32 -19z m3864 -291 c-6 -62 -8 -67 -57 -115 -76 -74 -173 -113 -214 -87 -22
14 -33 63 -27 115 4 37 0 76 -15 134 -12 45 -21 100 -21 122 0 50 -7 46 185
92 l140 34 7 -115 c5 -63 5 -144 2 -180z m-3659 239 c49 -11 103 -27 120 -35
l31 -15 -4 -167 c-5 -205 -14 -232 -70 -232 -55 0 -134 43 -167 91 -45 63 -55
124 -48 266 6 120 7 124 27 118 12 -3 61 -15 111 -26z m445 -107 c63 -8 102
-17 120 -30 24 -19 25 -22 28 -163 3 -158 -8 -231 -41 -280 -26 -38 -123 -98
-172 -106 -73 -12 -125 93 -145 294 -10 99 -9 142 6 274 l5 46 52 -12 c29 -7
95 -17 147 -23z m2776 -74 c43 -309 39 -418 -17 -491 -61 -81 -116 -97 -161
-49 -31 32 -81 123 -97 172 -14 47 -60 373 -54 384 11 17 74 36 167 51 53 9
106 19 118 24 13 5 25 7 27 5 2 -2 10 -45 17 -96z m-2336 -4 c97 -10 171 -22
196 -34 l42 -18 7 -148 c8 -151 2 -263 -15 -308 -23 -61 -276 -96 -364 -51
-63 32 -79 61 -82 157 -2 46 1 128 7 183 6 54 10 133 10 173 0 72 0 74 22 68
12 -4 92 -13 177 -22z m1879 -86 c34 -166 41 -226 41 -351 0 -114 -1 -119 -26
-142 -54 -50 -186 -71 -259 -41 -36 16 -69 65 -59 91 4 8 -2 124 -11 256 -20
267 -21 258 45 260 19 0 76 6 125 13 50 7 97 14 106 15 13 1 21 -21 38 -101z
m-455 30 c4 -13 11 -114 16 -224 5 -111 12 -242 16 -292 l7 -91 -31 -30 c-37
-38 -63 -39 -225 -12 -130 22 -171 37 -210 76 -36 36 -42 64 -31 139 6 41 5
96 -3 166 -16 139 -16 222 0 242 10 13 52 18 222 28 115 6 212 13 214 16 10 9
19 3 25 -18z m-734 -2 c41 -2 87 -9 101 -16 26 -12 26 -13 32 -153 4 -78 14
-198 22 -266 9 -68 13 -132 10 -142 -3 -10 -27 -28 -53 -41 -44 -21 -57 -23
-206 -21 -178 3 -204 11 -240 72 -22 38 -22 57 -11 373 l7 206 132 -4 c72 -2
165 -6 206 -8z m-1589 -267 c30 -12 60 -25 67 -31 8 -7 12 -44 12 -115 0 -86
-2 -103 -13 -95 -7 6 -46 76 -87 154 -43 85 -65 136 -53 125 12 -10 45 -27 74
-38z m3625 16 c18 -70 -27 -185 -104 -267 -46 -50 -46 -50 -64 -29 -9 12 -20
47 -24 79 -3 31 -13 77 -21 101 -18 55 -15 59 98 96 43 15 81 31 84 36 11 17
25 9 31 -16z m-3362 -231 c19 -23 49 -47 65 -54 28 -11 30 -15 33 -83 6 -134
-4 -149 -66 -102 -18 14 -38 25 -44 25 -23 0 -80 61 -86 92 -4 19 3 75 16 140
l23 107 12 -42 c7 -23 28 -61 47 -83z m351 42 c0 -74 65 -139 151 -152 l44 -6
0 -92 c0 -50 3 -121 6 -157 l7 -66 -79 14 c-157 30 -227 72 -245 149 -12 54
-11 207 2 241 13 34 44 70 84 94 17 11 30 19 30 19 0 0 0 -20 0 -44z m2730
-121 c10 -87 -15 -134 -84 -155 -20 -7 -51 -19 -69 -28 -47 -24 -66 -9 -70 55
-2 42 1 55 23 82 15 17 33 31 41 31 17 0 123 50 130 61 13 21 22 5 29 -46z
m-357 -15 c29 -43 45 -104 37 -143 -14 -70 -23 -81 -99 -114 -117 -52 -122
-48 -127 86 l-4 94 54 17 c62 21 71 31 71 84 0 38 1 38 23 24 12 -8 32 -30 45
-48z m-1767 -100 c33 -32 59 -62 60 -66 0 -5 2 -62 3 -127 2 -146 -3 -157 -66
-139 -23 8 -81 20 -128 27 -100 16 -85 12 -104 31 -13 13 -16 45 -16 190 l0
174 38 0 c20 1 60 9 87 18 l50 17 9 -33 c5 -20 32 -56 67 -92z m1362 10 c49 0
62 -4 84 -26 20 -21 24 -32 20 -60 -3 -18 -2 -46 2 -61 20 -74 -21 -106 -165
-128 -54 -8 -111 -18 -126 -21 -24 -5 -29 -2 -39 22 -13 34 -6 138 12 177 8
19 25 31 52 39 30 9 43 20 51 41 8 21 16 27 31 23 11 -3 46 -6 78 -6z m-566
-66 c41 -16 90 -26 132 -27 l66 -2 -3 -30 c-2 -17 3 -58 12 -92 9 -34 13 -68
10 -77 -7 -17 -47 -32 -62 -22 -5 3 -47 -1 -93 -9 -46 -8 -105 -15 -131 -15
l-48 0 0 166 0 166 26 -17 c14 -9 55 -28 91 -41z m-252 -11 c11 -11 15 -25 11
-42 -4 -14 -9 -72 -13 -128 l-6 -103 -116 0 c-64 0 -139 3 -167 6 l-51 6 -7
120 c-9 150 -8 153 89 145 38 -3 93 -1 120 3 86 13 122 11 140 -7z"/>
</g>
</svg>
